<mxfile host="app.diagrams.net" modified="2024-03-01T18:45:38.585Z" agent="Mozilla/5.0 (Macintosh; Intel Mac OS X 10.15; rv:123.0) Gecko/20100101 Firefox/123.0" etag="zzXz4EAnj6D3Ke7inxD7" version="23.0.2" type="github">
  <diagram name="Page-1" id="e7e014a7-5840-1c2e-5031-d8a46d1fe8dd">
    <mxGraphModel dx="1186" dy="635" grid="1" gridSize="10" guides="1" tooltips="1" connect="1" arrows="1" fold="1" page="1" pageScale="1" pageWidth="1169" pageHeight="826" background="none" math="0" shadow="0">
      <root>
        <mxCell id="0" />
        <mxCell id="1" parent="0" />
        <mxCell id="2" value="Frontend Application" style="swimlane;whiteSpace=wrap;startSize=60;" parent="1" vertex="1">
          <mxGeometry x="40" y="120" width="280" height="570" as="geometry" />
        </mxCell>
        <mxCell id="5" value="" style="ellipse;shape=startState;fillColor=#000000;strokeColor=#ff0000;" parent="2" vertex="1">
          <mxGeometry x="118" y="90" width="30" height="30" as="geometry" />
        </mxCell>
        <mxCell id="6" value="" style="edgeStyle=elbowEdgeStyle;elbow=horizontal;verticalAlign=bottom;endArrow=open;endSize=8;strokeColor=#FF0000;endFill=1;rounded=0" parent="2" target="7" edge="1">
          <mxGeometry x="100" y="40" as="geometry">
            <mxPoint x="133" y="161" as="targetPoint" />
            <mxPoint x="133" y="121" as="sourcePoint" />
          </mxGeometry>
        </mxCell>
        <mxCell id="7" value="submit on boarding&#xa;application by &#xa;Supervisor" style="" parent="2" vertex="1">
          <mxGeometry x="78" y="161" width="110" height="70" as="geometry" />
        </mxCell>
        <mxCell id="9" value="" style="endArrow=open;strokeColor=#FF0000;endFill=1;rounded=0" parent="2" source="7" edge="1">
          <mxGeometry relative="1" as="geometry">
            <mxPoint x="133" y="271" as="targetPoint" />
          </mxGeometry>
        </mxCell>
        <mxCell id="oTjzKzDoYP32wAgAro-r-50" value="approved by&#xa;Head&#xa;" style="rhombus;fillColor=#ffffc0;strokeColor=#ff0000;" vertex="1" parent="2">
          <mxGeometry x="93" y="276" width="80" height="40" as="geometry" />
        </mxCell>
        <mxCell id="35" value="" style="edgeStyle=elbowEdgeStyle;elbow=horizontal;strokeColor=#FF0000;endArrow=open;endFill=1;rounded=0;entryX=0;entryY=0.5;entryDx=0;entryDy=0;exitX=0;exitY=0.5;exitDx=0;exitDy=0;" parent="2" target="7" edge="1" source="oTjzKzDoYP32wAgAro-r-50">
          <mxGeometry width="100" height="100" relative="1" as="geometry">
            <mxPoint x="88" y="291" as="sourcePoint" />
            <mxPoint x="268" y="231" as="targetPoint" />
            <Array as="points">
              <mxPoint x="48" y="281" />
            </Array>
          </mxGeometry>
        </mxCell>
        <mxCell id="20" value="" style="endArrow=open;strokeColor=#FF0000;endFill=1;rounded=0;exitX=0.5;exitY=1;exitDx=0;exitDy=0;entryX=0.5;entryY=0;entryDx=0;entryDy=0;" parent="2" source="oTjzKzDoYP32wAgAro-r-50" target="oTjzKzDoYP32wAgAro-r-56" edge="1">
          <mxGeometry relative="1" as="geometry">
            <mxPoint x="173" y="295.55" as="sourcePoint" />
            <mxPoint x="128" y="370" as="targetPoint" />
          </mxGeometry>
        </mxCell>
        <mxCell id="oTjzKzDoYP32wAgAro-r-56" value="send request to &#xa;GROUPER" style="" vertex="1" parent="2">
          <mxGeometry x="58" y="380" width="150" height="50" as="geometry" />
        </mxCell>
        <mxCell id="3" value="GROUPER" style="swimlane;whiteSpace=wrap;startSize=60;" parent="1" vertex="1">
          <mxGeometry x="320" y="120" width="280" height="570" as="geometry" />
        </mxCell>
        <mxCell id="33" value="add membership to &#xa;related Groups" style="" parent="3" vertex="1">
          <mxGeometry x="60" y="380" width="150" height="50" as="geometry" />
        </mxCell>
        <mxCell id="oTjzKzDoYP32wAgAro-r-59" value="" style="endArrow=open;strokeColor=#FF0000;endFill=1;rounded=0;" edge="1" parent="3" target="33">
          <mxGeometry relative="1" as="geometry">
            <mxPoint x="-70" y="405" as="sourcePoint" />
            <mxPoint x="50" y="404.54999999999995" as="targetPoint" />
          </mxGeometry>
        </mxCell>
        <mxCell id="4" value="Azure EntraID" style="swimlane;whiteSpace=wrap;startSize=60;" parent="1" vertex="1">
          <mxGeometry x="600" y="120" width="280" height="570" as="geometry" />
        </mxCell>
        <mxCell id="oTjzKzDoYP32wAgAro-r-52" value="synchronize EAD /&#xa;Azure AD" style="" vertex="1" parent="4">
          <mxGeometry x="70" y="380" width="140" height="50" as="geometry" />
        </mxCell>
        <mxCell id="oTjzKzDoYP32wAgAro-r-60" value="" style="shape=cylinder3;whiteSpace=wrap;html=1;boundedLbl=1;backgroundOutline=1;size=6.315789473684276;" vertex="1" parent="4">
          <mxGeometry x="103" y="170" width="50" height="50" as="geometry" />
        </mxCell>
        <mxCell id="oTjzKzDoYP32wAgAro-r-41" value="MedIT Systems&#xa;(Java apps / Power Platform apps)" style="swimlane;whiteSpace=wrap;startSize=60;" vertex="1" parent="1">
          <mxGeometry x="881" y="120" width="280" height="570" as="geometry" />
        </mxCell>
        <mxCell id="oTjzKzDoYP32wAgAro-r-42" value="granted access to &#xa;on boarding staff &#xa;to access systems" style="" vertex="1" parent="oTjzKzDoYP32wAgAro-r-41">
          <mxGeometry x="70" y="376" width="150" height="50" as="geometry" />
        </mxCell>
        <mxCell id="oTjzKzDoYP32wAgAro-r-45" value="" style="ellipse;shape=endState;fillColor=#000000;strokeColor=#ff0000" vertex="1" parent="oTjzKzDoYP32wAgAro-r-41">
          <mxGeometry x="130" y="498" width="30" height="30" as="geometry" />
        </mxCell>
        <mxCell id="oTjzKzDoYP32wAgAro-r-58" value="" style="endArrow=open;strokeColor=#FF0000;endFill=1;rounded=0;entryX=0.5;entryY=0;entryDx=0;entryDy=0;exitX=0.5;exitY=1;exitDx=0;exitDy=0;" edge="1" parent="oTjzKzDoYP32wAgAro-r-41" source="oTjzKzDoYP32wAgAro-r-42" target="oTjzKzDoYP32wAgAro-r-45">
          <mxGeometry relative="1" as="geometry">
            <mxPoint x="149" y="460" as="sourcePoint" />
            <mxPoint x="172" y="461" as="targetPoint" />
          </mxGeometry>
        </mxCell>
        <mxCell id="oTjzKzDoYP32wAgAro-r-47" value="Proposed System flow - TFOM Staff Onboarding" style="text;html=1;strokeColor=none;fillColor=none;align=center;verticalAlign=middle;whiteSpace=wrap;rounded=0;fontSize=18;" vertex="1" parent="1">
          <mxGeometry x="40" y="60" width="1110" height="30" as="geometry" />
        </mxCell>
        <mxCell id="17" value="" style="endArrow=open;strokeColor=#FF0000;endFill=1;rounded=0;exitX=1;exitY=0.5;exitDx=0;exitDy=0;entryX=0;entryY=0.5;entryDx=0;entryDy=0;" parent="1" source="33" target="oTjzKzDoYP32wAgAro-r-52" edge="1">
          <mxGeometry relative="1" as="geometry">
            <mxPoint x="620" y="451" as="targetPoint" />
          </mxGeometry>
        </mxCell>
        <mxCell id="oTjzKzDoYP32wAgAro-r-55" value="" style="endArrow=open;strokeColor=#FF0000;endFill=1;rounded=0;exitX=0.989;exitY=0.398;exitDx=0;exitDy=0;entryX=0;entryY=0.5;entryDx=0;entryDy=0;exitPerimeter=0;" edge="1" parent="1" source="oTjzKzDoYP32wAgAro-r-52" target="oTjzKzDoYP32wAgAro-r-42">
          <mxGeometry relative="1" as="geometry">
            <mxPoint x="810" y="415.55" as="sourcePoint" />
            <mxPoint x="950" y="415.55" as="targetPoint" />
          </mxGeometry>
        </mxCell>
        <mxCell id="oTjzKzDoYP32wAgAro-r-63" value="" style="endArrow=classic;startArrow=classic;html=1;rounded=0;entryX=0;entryY=0.5;entryDx=0;entryDy=0;entryPerimeter=0;exitX=1;exitY=0.5;exitDx=0;exitDy=0;strokeColor=#b85450;fillColor=#f8cecc;" edge="1" parent="1" source="7" target="oTjzKzDoYP32wAgAro-r-60">
          <mxGeometry width="50" height="50" relative="1" as="geometry">
            <mxPoint x="630" y="400" as="sourcePoint" />
            <mxPoint x="680" y="350" as="targetPoint" />
          </mxGeometry>
        </mxCell>
      </root>
    </mxGraphModel>
  </diagram>
</mxfile>
